<svg width="143" height="16" viewBox="0 0 143 16" fill="none" xmlns="http://www.w3.org/2000/svg">
<path fill-rule="evenodd" clip-rule="evenodd" d="M43.1027 15.3622C42.0721 15.7874 40.9658 16 39.7838 16C38.5874 16 37.4775 15.7874 36.4541 15.3622C35.4306 14.9369 34.5405 14.3568 33.7838 13.6216C33.027 12.8865 32.4324 12.036 32 11.0703C31.5676 10.1045 31.3514 9.08108 31.3514 8C31.3514 6.91892 31.5676 5.8955 32 4.92973C32.4324 3.96396 33.027 3.11351 33.7838 2.37838C34.5405 1.64324 35.4306 1.06306 36.4541 0.637838C37.4775 0.212613 38.5874 0 39.7838 0C40.9658 0 42.0721 0.212613 43.1027 0.637838C44.1333 1.06306 45.027 1.64324 45.7838 2.37838C46.5405 3.11351 47.1351 3.96396 47.5676 4.92973C48 5.8955 48.2162 6.91892 48.2162 8C48.2162 9.08108 48 10.1045 47.5676 11.0703C47.1351 12.036 46.5405 12.8865 45.7838 13.6216C45.027 14.3568 44.1333 14.9369 43.1027 15.3622ZM4.10811 11.027V15.5676H0V0.432432H6.81081C7.64685 0.432432 8.41081 0.565766 9.1027 0.832432C9.79459 1.0991 10.3856 1.47027 10.8757 1.94595C11.3658 2.42162 11.7477 2.98378 12.0216 3.63243C12.2955 4.28108 12.4324 4.98018 12.4324 5.72973C12.4324 6.49369 12.2955 7.1964 12.0216 7.83784C11.7477 8.47928 11.3658 9.03784 10.8757 9.51351C10.3856 9.98919 9.79459 10.3604 9.1027 10.627C8.41081 10.8937 7.64685 11.027 6.81081 11.027H4.10811ZM4.10811 7.35135H6.59459C7.08468 7.35135 7.4955 7.18919 7.82703 6.86486C8.15856 6.54054 8.32432 6.16216 8.32432 5.72973C8.32432 5.2973 8.15856 4.91892 7.82703 4.59459C7.4955 4.27027 7.08468 4.10811 6.59459 4.10811H4.10811V7.35135ZM19.1351 15.5676V9.72973H24.6486V15.5676H28.7568V0.432432H24.6486V6.05405H19.1351V0.432432H15.027V15.5676H19.1351ZM39.7838 12.3243C39.1928 12.3243 38.6378 12.2162 38.1189 12C37.6 11.7838 37.1532 11.4811 36.7784 11.0919C36.4036 10.7027 36.1081 10.245 35.8919 9.71892C35.6757 9.19279 35.5676 8.61982 35.5676 8C35.5676 7.38018 35.6757 6.80721 35.8919 6.28108C36.1081 5.75495 36.4036 5.2973 36.7784 4.90811C37.1532 4.51892 37.6 4.21622 38.1189 4C38.6378 3.78378 39.1928 3.67568 39.7838 3.67568C40.3748 3.67568 40.9261 3.78378 41.4378 4C41.9495 4.21622 42.3964 4.51892 42.7784 4.90811C43.1604 5.2973 43.4595 5.75495 43.6757 6.28108C43.8919 6.80721 44 7.38018 44 8C44 8.61982 43.8919 9.19279 43.6757 9.71892C43.4595 10.245 43.1604 10.7027 42.7784 11.0919C42.3964 11.4811 41.9495 11.7838 41.4378 12C40.9261 12.2162 40.3748 12.3243 39.7838 12.3243ZM57.8378 4.10811V15.5676H53.7297V4.10811H49.5135V0.432432H62.0541V4.10811H57.8378ZM71.7838 16C72.9658 16 74.0721 15.7874 75.1027 15.3622C76.1333 14.9369 77.027 14.3568 77.7838 13.6216C78.5405 12.8865 79.1351 12.036 79.5676 11.0703C80 10.1045 80.2162 9.08108 80.2162 8C80.2162 6.91892 80 5.8955 79.5676 4.92973C79.1351 3.96396 78.5405 3.11351 77.7838 2.37838C77.027 1.64324 76.1333 1.06306 75.1027 0.637838C74.0721 0.212613 72.9658 0 71.7838 0C70.5874 0 69.4775 0.212613 68.4541 0.637838C67.4306 1.06306 66.5405 1.64324 65.7838 2.37838C65.027 3.11351 64.4324 3.96396 64 4.92973C63.5676 5.8955 63.3514 6.91892 63.3514 8C63.3514 9.08108 63.5676 10.1045 64 11.0703C64.4324 12.036 65.027 12.8865 65.7838 13.6216C66.5405 14.3568 67.4306 14.9369 68.4541 15.3622C69.4775 15.7874 70.5874 16 71.7838 16ZM70.1189 12C70.6378 12.2162 71.1928 12.3243 71.7838 12.3243C72.3748 12.3243 72.9261 12.2162 73.4378 12C73.9495 11.7838 74.3964 11.4811 74.7784 11.0919C75.1604 10.7027 75.4595 10.245 75.6757 9.71892C75.8919 9.19279 76 8.61982 76 8C76 7.38018 75.8919 6.80721 75.6757 6.28108C75.4595 5.75495 75.1604 5.2973 74.7784 4.90811C74.3964 4.51892 73.9495 4.21622 73.4378 4C72.9261 3.78378 72.3748 3.67568 71.7838 3.67568C71.1928 3.67568 70.6378 3.78378 70.1189 4C69.6 4.21622 69.1532 4.51892 68.7784 4.90811C68.4036 5.2973 68.1081 5.75495 67.8919 6.28108C67.6757 6.80721 67.5676 7.38018 67.5676 8C67.5676 8.61982 67.6757 9.19279 67.8919 9.71892C68.1081 10.245 68.4036 10.7027 68.7784 11.0919C69.1532 11.4811 69.6 11.7838 70.1189 12ZM87.5676 16C88.5189 16 89.3694 15.8667 90.1189 15.6C90.8685 15.3333 91.5027 14.973 92.0216 14.5189C92.5405 14.0649 92.9369 13.5387 93.2108 12.9405C93.4847 12.3423 93.6216 11.7045 93.6216 11.027C93.6216 10.1477 93.4486 9.42703 93.1027 8.86487C92.7568 8.3027 92.3243 7.84865 91.8054 7.5027C91.2865 7.15676 90.7207 6.88288 90.1081 6.68108C89.4955 6.47928 88.9297 6.29189 88.4108 6.11892C87.8919 5.94595 87.4595 5.76216 87.1135 5.56757C86.7676 5.37297 86.5946 5.1027 86.5946 4.75676C86.5946 4.42523 86.7423 4.12613 87.0378 3.85946C87.3333 3.59279 87.7261 3.45946 88.2162 3.45946C88.591 3.45946 88.9297 3.52072 89.2324 3.64324C89.5351 3.76577 89.7946 3.90631 90.0108 4.06486C90.2703 4.23784 90.5009 4.43243 90.7027 4.64865L93.0811 2.16216C92.7351 1.75856 92.3099 1.3982 91.8054 1.08108C91.373 0.807207 90.8252 0.558559 90.1622 0.335135C89.4991 0.111712 88.7063 0 87.7838 0C86.9189 0 86.1333 0.12973 85.427 0.389189C84.7207 0.648649 84.1189 0.994595 83.6216 1.42703C83.1243 1.85946 82.7387 2.35676 82.4649 2.91892C82.191 3.48108 82.0541 4.05766 82.0541 4.64865C82.0541 5.52793 82.227 6.24865 82.573 6.81081C82.9189 7.37297 83.3513 7.82703 83.8703 8.17297C84.3892 8.51892 84.955 8.79279 85.5676 8.99459C86.1802 9.1964 86.7459 9.38378 87.2649 9.55676C87.7838 9.72973 88.2162 9.91351 88.5622 10.1081C88.9081 10.3027 89.0811 10.573 89.0811 10.9189C89.0811 11.3514 88.9081 11.7297 88.5622 12.0541C88.2162 12.3784 87.7405 12.5405 87.1351 12.5405C86.645 12.5405 86.2018 12.4577 85.8054 12.2919C85.409 12.1261 85.0667 11.9423 84.7784 11.7405C84.4468 11.4955 84.1514 11.2216 83.8919 10.9189L81.5135 13.4054C81.9459 13.8955 82.4577 14.3279 83.0486 14.7027C83.5532 15.0342 84.1802 15.3333 84.9297 15.6C85.6793 15.8667 86.5586 16 87.5676 16ZM100.108 7.13514V15.5676H96V0.432432H99.5676L106.054 8.86486V0.432432H110.162V15.5676H106.616L100.108 7.13514ZM116.324 15.5676L117.405 12.3243H122.378L123.459 15.5676H127.892L122.162 0.432432H117.622L111.892 15.5676H116.324ZM119.892 4.64865L118.486 9.08108H121.297L119.892 4.64865ZM133.73 15.5676V11.027H136.432C137.268 11.027 138.032 10.8937 138.724 10.627C139.416 10.3604 140.007 9.98919 140.497 9.51351C140.987 9.03784 141.369 8.47928 141.643 7.83784C141.917 7.1964 142.054 6.49369 142.054 5.72973C142.054 4.98018 141.917 4.28108 141.643 3.63243C141.369 2.98378 140.987 2.42162 140.497 1.94595C140.007 1.47027 139.416 1.0991 138.724 0.832432C138.032 0.565766 137.268 0.432432 136.432 0.432432H129.622V15.5676H133.73ZM133.73 7.35135H136.216C136.706 7.35135 137.117 7.18919 137.449 6.86486C137.78 6.54054 137.946 6.16216 137.946 5.72973C137.946 5.2973 137.78 4.91892 137.449 4.59459C137.117 4.27027 136.706 4.10811 136.216 4.10811H133.73V7.35135Z" fill="white"/>
</svg>
